<svg viewBox="0 0 1200 200" xmlns="http://www.w3.org/2000/svg" preserveAspectRatio="none">
  <path d="M 0 200 L 0 100 Q 0 100 12 106.75953040136343 Q 24 113.51906080272688 36 117.69668033875772 Q 48 121.87429987478853 60 121.87429987478853 Q 72 121.87429987478853 84 117.69668033875772 Q 96 113.51906080272688 108 106.75953040136343 Q 120 100 132 93.24046959863657 Q 144 86.48093919727312 156 82.30331966124228 Q 168 78.12570012521147 180 78.12570012521147 Q 192 78.12570012521147 204 82.30331966124228 Q 216 86.48093919727312 228 93.24046959863657 Q 240 100 252 106.75953040136343 Q 264 113.51906080272687 276 117.6966803387577 Q 288 121.87429987478853 300 121.87429987478853 Q 312 121.87429987478853 324 117.69668033875769 Q 336 113.51906080272686 348 106.75953040136343 Q 360 100.00000000000001 372 93.24046959863657 Q 384 86.48093919727313 396 82.3033196612423 Q 408 78.12570012521147 420 78.12570012521147 Q 432 78.12570012521147 444 82.30331966124228 Q 456 86.48093919727312 468 93.24046959863655 Q 480 99.99999999999999 492 106.7595304013634 Q 504 113.51906080272684 516 117.69668033875769 Q 528 121.87429987478853 540 121.87429987478853 Q 552 121.87429987478853 564 117.69668033875772 Q 576 113.5190608027269 588 106.75953040136346 Q 600 100.00000000000001 612 93.24046959863657 Q 624 86.48093919727313 636 82.30331966124228 Q 648 78.12570012521145 660 78.12570012521147 Q 672 78.1257001252115 684 82.3033196612423 Q 696 86.4809391972731 708 93.24046959863654 Q 720 99.99999999999999 732 106.75953040136343 Q 744 113.51906080272687 756 117.6966803387577 Q 768 121.87429987478853 780 121.87429987478852 Q 792 121.8742998747885 804 117.69668033875766 Q 816 113.51906080272683 828 106.75953040136342 Q 840 100.00000000000001 852 93.24046959863657 Q 864 86.48093919727313 876 82.30331966124228 Q 888 78.12570012521145 900 78.12570012521147 Q 912 78.12570012521147 924 82.30331966124228 Q 936 86.4809391972731 948 93.24046959863654 Q 960 99.99999999999997 972 106.75953040136338 Q 984 113.5190608027268 996 117.69668033875766 Q 1008 121.8742998747885 1020 121.87429987478853 Q 1032 121.87429987478856 1044 117.69668033875773 Q 1056 113.5190608027269 1068 106.75953040136346 Q 1080 100.00000000000003 1092 93.24046959863658 Q 1104 86.48093919727313 1116 82.30331966124231 Q 1128 78.1257001252115 1140 78.12570012521148 Q 1152 78.12570012521147 1164 82.30331966124228 Q 1176 86.4809391972731 1188 93.24046959863654 L 1200 99.99999999999997 L 1200 200 Z" fill="#000" />
</svg>